<svg width="853" height="719" viewBox="0 0 853 719" fill="none" xmlns="http://www.w3.org/2000/svg">
<path opacity="0.010101" d="M407.877 81.3874L270.301 340.131C266.131 347.972 267.485 357.607 273.655 363.995L477.22 574.794C483.39 581.182 492.971 582.872 500.954 578.979L764.34 450.516C772.323 446.623 776.89 438.033 775.654 429.238L734.87 139.045C733.634 130.251 726.876 123.252 718.13 121.71L429.537 70.8231C420.791 69.2809 412.046 73.5459 407.877 81.3874Z" stroke="url(#paint0_linear_589_195)"/>
<path opacity="0.020202" d="M409.186 80.6526L267.4 336.441C263.094 344.209 264.28 353.865 270.337 360.361L469.792 574.25C475.849 580.745 485.399 582.602 493.448 578.848L758.504 455.251C766.553 451.497 771.27 442.988 770.188 434.173L734.546 143.896C733.464 135.081 726.828 127.966 718.11 126.271L431.027 70.4679C422.309 68.7733 413.491 72.885 409.186 80.6526Z" stroke="url(#paint1_linear_589_195)"/>
<path opacity="0.030303" d="M410.516 79.9973L264.582 332.763C260.141 340.455 261.158 350.131 267.101 356.731L462.399 573.632C468.342 580.231 477.859 582.254 485.972 578.642L752.608 459.928C760.721 456.316 765.585 447.89 764.657 439.058L734.149 148.787C733.22 139.955 726.71 132.725 718.023 130.878L432.532 70.1953C423.845 68.3488 414.957 72.3061 410.516 79.9973Z" stroke="url(#paint2_linear_589_195)"/>
<path opacity="0.040404" d="M411.867 79.422L261.846 329.099C257.272 336.711 258.12 346.404 263.946 353.106L455.044 572.939C460.871 579.642 470.35 581.83 478.526 578.36L746.651 464.548C754.827 461.077 759.837 452.738 759.063 443.891L733.677 153.718C732.903 144.87 726.52 137.528 717.866 135.53L434.05 70.0058C425.397 68.0079 416.441 71.8095 411.867 79.422Z" stroke="url(#paint3_linear_589_195)"/>
<path opacity="0.050505" d="M413.237 78.9261L259.193 325.448C254.486 332.98 255.165 342.685 260.874 349.489L447.728 572.173C453.436 578.976 462.877 581.33 471.111 578.003L740.637 469.107C748.872 465.78 754.028 457.529 753.408 448.67L733.13 158.685C732.511 149.825 726.257 142.372 717.64 140.223L435.581 69.8984C426.964 67.7498 417.943 71.3945 413.237 78.9261Z" stroke="url(#paint4_linear_589_195)"/>
<path opacity="0.0606061" d="M414.623 78.5089L256.62 321.812C251.783 329.26 252.293 338.976 257.882 345.878L440.451 571.333C446.04 578.235 455.438 580.753 463.729 577.57L734.566 473.605C742.857 470.423 748.156 462.263 747.692 453.394L732.509 163.686C732.044 154.817 725.921 147.256 717.342 144.957L437.122 69.8725C428.543 67.5739 419.46 71.0606 414.623 78.5089Z" stroke="url(#paint5_linear_589_195)"/>
<path opacity="0.0707071" d="M416.027 78.1715L254.13 318.193C249.164 325.556 249.503 335.279 254.971 342.277L433.216 570.42C438.684 577.419 448.036 580.101 456.382 577.063L728.44 478.042C736.785 475.005 742.226 466.939 741.916 458.063L731.812 168.721C731.502 159.846 725.512 152.179 716.975 149.731L438.672 69.9291C430.135 67.4811 420.993 70.8087 416.027 78.1715Z" stroke="url(#paint6_linear_589_195)"/>
<path opacity="0.0808081" d="M417.443 77.9153L251.72 314.593C246.626 321.868 246.795 331.596 252.14 338.689L426.023 569.438C431.368 576.531 440.672 579.376 449.069 576.484L722.258 482.418C730.655 479.526 736.236 471.557 736.081 462.677L731.038 173.791C730.883 164.911 725.028 157.141 716.535 154.544L440.229 70.0694C431.736 67.4728 422.537 70.6403 417.443 77.9153Z" stroke="url(#paint7_linear_589_195)"/>
<path opacity="0.0909091" d="M418.874 77.7384L249.39 311.012C244.17 318.197 244.17 327.926 249.39 335.111L418.874 568.385C424.094 575.57 433.347 578.577 441.793 575.832L716.023 486.73C724.47 483.985 730.188 476.114 730.188 467.233V178.891C730.188 170.01 724.47 162.138 716.023 159.394L441.793 70.2914C433.347 67.5469 424.094 70.5534 418.874 77.7384Z" stroke="url(#paint8_linear_589_195)"/>
<path opacity="0.10101" d="M420.315 77.6411L247.14 307.452C241.795 314.545 241.626 324.273 246.72 331.548L411.769 567.262C416.863 574.537 426.062 577.705 434.555 575.108L709.736 490.977C718.229 488.38 724.084 480.61 724.239 471.73L729.262 184.02C729.417 175.14 723.836 167.17 715.439 164.279L443.361 70.5952C434.964 67.7037 425.66 70.5483 420.315 77.6411Z" stroke="url(#paint9_linear_589_195)"/>
<path opacity="0.111111" d="M421.767 77.6252L244.97 303.916C239.502 310.914 239.163 320.637 244.129 328L404.71 566.072C409.677 573.435 418.819 576.763 427.356 574.315L703.399 495.161C711.936 492.713 717.926 485.046 718.236 476.17L728.258 189.179C728.567 180.303 723.127 172.237 714.781 169.199L444.933 70.9826C436.587 67.945 427.235 70.6267 421.767 77.6252Z" stroke="url(#paint10_linear_589_195)"/>
<path opacity="0.121212" d="M423.228 77.688L242.878 300.402C237.288 307.304 236.779 317.02 241.616 324.468L397.698 564.813C402.535 572.262 411.618 575.748 420.197 573.45L697.011 499.278C705.589 496.979 711.712 489.418 712.177 480.549L727.175 194.363C727.64 185.494 722.341 177.334 714.05 174.151L446.506 71.4507C438.214 68.268 428.817 70.7861 423.228 77.688Z" stroke="url(#paint11_linear_589_195)"/>
<path opacity="0.131313" d="M424.695 77.8324L240.864 296.914C235.155 303.718 234.477 313.423 239.183 320.955L390.735 563.489C395.441 571.021 404.462 574.665 413.079 572.517L690.575 503.329C699.193 501.181 705.447 493.728 706.066 484.868L726.016 199.574C726.635 190.714 721.48 182.463 713.245 179.136L448.079 72.0023C439.844 68.6753 430.404 71.029 424.695 77.8324Z" stroke="url(#paint12_linear_589_195)"/>
<path opacity="0.141414" d="M426.169 78.0565L238.927 293.453C233.101 300.156 232.253 309.848 236.827 317.461L383.821 562.099C388.395 569.712 397.351 573.513 406.004 571.515L684.093 507.314C692.746 505.316 699.129 497.973 699.903 489.126L724.778 204.808C725.552 195.961 720.541 187.621 712.366 184.151L449.65 72.6354C441.475 69.1652 431.995 71.3539 426.169 78.0565Z" stroke="url(#paint13_linear_589_195)"/>
<path opacity="0.151515" d="M427.647 78.3601L237.068 290.019C231.126 296.619 230.109 306.295 234.549 313.987L376.957 560.644C381.398 568.335 390.286 572.293 398.973 570.446L677.564 511.23C686.251 509.383 692.762 502.153 693.69 493.32L723.461 210.065C724.39 201.233 719.525 192.807 711.412 189.195L451.22 73.3497C443.106 69.7373 433.59 71.7602 427.647 78.3601Z" stroke="url(#paint14_linear_589_195)"/>
<path opacity="0.161616" d="M429.128 78.7443L235.285 286.615C229.228 293.111 228.042 302.767 232.348 310.535L370.144 559.126C374.45 566.894 383.268 571.005 391.985 569.311L670.991 515.078C679.709 513.383 686.344 506.268 687.427 497.453L722.065 215.343C723.148 206.528 718.431 198.019 710.382 194.266L452.784 74.1459C444.735 70.3926 435.185 72.249 429.128 78.7443Z" stroke="url(#paint15_linear_589_195)"/>
<path opacity="0.171717" d="M430.61 79.2086L233.577 283.242C227.407 289.631 226.053 299.265 230.223 307.107L363.384 557.546C367.553 565.388 376.298 569.653 385.044 568.111L664.375 518.857C673.121 517.315 679.879 510.316 681.115 501.522L720.591 220.642C721.827 211.847 717.259 203.257 709.277 199.363L454.343 75.0239C446.36 71.1306 436.779 72.8201 430.61 79.2086Z" stroke="url(#paint16_linear_589_195)"/>
<path opacity="0.181818" d="M432.092 79.7523L231.944 279.9C225.664 286.18 224.142 295.79 228.174 303.703L356.677 555.904C360.709 563.818 369.378 568.234 378.15 566.845L657.717 522.566C666.489 521.177 673.368 514.297 674.758 505.525L719.037 225.958C720.426 217.186 716.009 208.517 708.096 204.485L455.895 75.9824C447.981 71.9504 438.372 73.4723 432.092 79.7523Z" stroke="url(#paint17_linear_589_195)"/>
<path opacity="0.191919" d="M433.573 80.3759L230.385 276.592C223.996 282.762 222.307 292.343 226.2 300.325L350.024 554.203C353.917 562.185 362.508 566.753 371.303 565.517L651.018 526.205C659.813 524.969 666.811 518.211 668.354 509.464L717.403 231.291C718.945 222.545 714.68 213.8 706.839 209.631L457.437 77.0219C449.596 72.8525 439.961 74.2065 433.573 80.3759Z" stroke="url(#paint18_linear_589_195)"/>
<path opacity="0.20202" d="M435.051 81.0773L228.9 273.317C222.404 279.374 220.548 288.924 224.301 296.973L343.428 552.44C347.181 560.489 355.69 565.206 364.505 564.124L644.281 529.772C653.096 528.689 660.211 522.054 661.906 513.336L715.691 236.638C717.385 227.92 713.273 219.103 705.506 214.797L458.971 78.1403C451.203 73.8346 441.547 75.0203 435.051 81.0773Z" stroke="url(#paint19_linear_589_195)"/>
<path opacity="0.212121" d="M436.525 81.8601L227.487 270.079C220.887 276.022 218.864 285.538 222.476 293.652L336.887 550.622C340.499 558.735 348.925 563.6 357.757 562.671L637.505 533.269C646.338 532.34 653.568 525.83 655.415 517.143L713.898 242.001C715.744 233.314 711.787 224.426 704.096 219.985L460.493 79.341C452.801 74.9004 443.125 75.9174 436.525 81.8601Z" stroke="url(#paint20_linear_589_195)"/>
<path opacity="0.222222" d="M437.993 82.7201L226.146 266.877C219.443 272.703 217.254 282.183 220.724 290.358L330.403 548.745C333.873 556.92 342.213 561.931 351.06 561.157L630.693 536.692C639.54 535.918 646.883 529.535 648.881 520.882L712.025 247.375C714.023 238.721 710.221 229.766 702.609 225.191L462.001 80.6197C454.388 76.0456 444.696 76.8936 437.993 82.7201Z" stroke="url(#paint21_linear_589_195)"/>
<path opacity="0.232323" d="M439.455 83.66L224.876 263.713C218.072 269.422 215.719 278.862 219.046 287.097L323.978 546.813C327.305 555.048 335.556 560.203 344.415 559.584L623.846 540.044C632.706 539.425 640.159 533.171 642.307 524.554L710.073 252.761C712.221 244.143 708.577 235.123 701.045 230.416L463.496 81.9789C455.964 77.2726 446.258 77.9513 439.455 83.66Z" stroke="url(#paint22_linear_589_195)"/>
<path opacity="0.242424" d="M440.908 84.6783L223.676 260.589C216.774 266.179 214.256 275.576 217.439 283.867L317.612 544.827C320.795 553.118 328.954 558.417 337.823 557.952L616.966 543.323C625.835 542.858 633.396 536.736 635.694 528.157L708.041 258.156C710.339 249.578 706.853 240.495 699.404 235.658L464.975 83.417C457.526 78.58 447.81 79.0892 440.908 84.6783Z" stroke="url(#paint23_linear_589_195)"/>
<path opacity="0.252525" d="M442.352 85.7738L222.546 257.505C215.548 262.973 212.866 272.325 215.904 280.671L311.306 542.786C314.343 551.132 322.409 556.572 331.285 556.263L610.053 546.528C618.929 546.218 626.595 540.228 629.043 531.691L705.929 263.559C708.377 255.021 705.049 245.879 697.686 240.913L466.437 84.9327C459.074 79.9665 449.351 80.306 442.352 85.7738Z" stroke="url(#paint24_linear_589_195)"/>
<path opacity="0.262626" d="M443.784 86.9469L221.484 254.462C214.391 259.807 211.546 269.111 214.438 277.508L305.06 540.693C307.951 549.091 315.921 554.671 324.801 554.516L603.108 549.658C611.988 549.503 619.758 543.648 622.355 535.155L703.736 268.968C706.333 260.475 703.165 251.275 695.89 246.181L467.879 86.5263C460.604 81.4323 450.877 81.6021 443.784 86.9469Z" stroke="url(#paint25_linear_589_195)"/>
<path opacity="0.272727" d="M445.204 88.1983L220.49 251.463C213.305 256.683 210.298 265.936 213.043 274.383L298.876 538.55C301.62 546.997 309.491 552.715 318.373 552.715L596.135 552.715C605.016 552.715 612.887 546.997 615.631 538.55L701.465 274.383C704.209 265.936 701.203 256.683 694.018 251.463L469.303 88.1983C462.118 82.9781 452.389 82.9781 445.204 88.1983Z" stroke="url(#paint26_linear_589_195)"/>
<path opacity="0.282828" d="M446.61 89.5265L219.562 248.507C212.287 253.601 209.12 262.8 211.717 271.293L292.754 536.357C295.351 544.85 303.121 550.705 312.001 550.86L589.133 555.697C598.013 555.852 605.983 550.272 608.874 541.875L699.113 279.801C702.005 271.404 699.16 262.1 692.067 256.755L470.706 89.9471C463.613 84.6023 453.885 84.4325 446.61 89.5265Z" stroke="url(#paint27_linear_589_195)"/>
<path opacity="0.292929" d="M448.002 90.932L218.701 245.597C211.338 250.564 208.011 259.706 210.459 268.243L286.696 534.115C289.144 542.652 296.811 548.642 305.687 548.952L582.105 558.605C590.981 558.915 599.046 553.474 602.084 545.129L696.682 285.222C699.72 276.877 697.038 267.525 690.04 262.057L472.086 91.773C465.088 86.3052 455.365 85.9657 448.002 90.932Z" stroke="url(#paint28_linear_589_195)"/>
<path opacity="0.30303" d="M449.376 92.4122L217.904 242.732C210.456 247.569 206.969 256.652 209.268 265.23L280.701 531.825C283 540.403 290.561 546.526 299.43 546.991L575.051 561.436C583.919 561.9 592.079 556.602 595.262 548.31L694.171 290.643C697.354 282.352 694.836 272.954 687.934 267.365L473.442 93.6734C466.54 88.0844 456.824 87.5752 449.376 92.4122Z" stroke="url(#paint29_linear_589_195)"/>
<path opacity="0.313131" d="M450.733 93.9696L217.171 239.915C209.639 244.622 205.995 253.642 208.143 262.26L274.771 529.49C276.92 538.107 284.373 544.361 293.232 544.98L567.972 564.192C576.832 564.812 585.083 559.656 588.41 551.422L691.58 296.065C694.907 287.83 692.554 278.39 685.75 272.681L474.773 95.6507C467.97 89.942 458.264 89.2633 450.733 93.9696Z" stroke="url(#paint30_linear_589_195)"/>
<path opacity="0.323232" d="M452.071 95.6007L216.501 237.145C208.889 241.719 205.087 250.675 207.085 259.329L268.907 527.108C270.904 535.762 278.247 542.145 287.095 542.919L560.872 566.871C569.719 567.645 578.059 562.634 581.529 554.459L688.911 301.483C692.381 293.308 690.193 283.828 683.49 278.001L476.078 97.7011C469.376 91.8745 459.683 91.0266 452.071 95.6007Z" stroke="url(#paint31_linear_589_195)"/>
<path opacity="0.333333" d="M453.388 97.3079L215.893 234.426C208.202 238.866 204.245 247.754 206.091 256.441L263.108 524.684C264.954 533.371 272.185 539.881 281.017 540.81L553.75 569.475C562.583 570.403 571.009 565.539 574.621 557.425L686.162 306.899C689.775 298.785 687.752 289.269 681.152 283.326L477.355 99.8269C470.755 93.8843 461.079 92.8673 453.388 97.3079Z" stroke="url(#paint32_linear_589_195)"/>
<path opacity="0.343434" d="M454.684 99.0884L215.346 231.755C207.578 236.061 203.467 244.879 205.161 253.597L257.376 522.217C259.07 530.935 266.186 537.57 275.001 538.652L546.609 572.002C555.424 573.084 563.933 568.367 567.686 560.318L683.335 312.309C687.088 304.26 685.232 294.71 678.736 288.653L478.603 102.025C472.108 95.9684 462.451 94.7828 454.684 99.0884Z" stroke="url(#paint33_linear_589_195)"/>
<path opacity="0.353535" d="M455.957 100.944L214.859 229.138C207.018 233.307 202.753 242.052 204.295 250.798L251.711 519.709C253.253 528.456 260.252 535.214 269.047 536.45L539.449 574.453C548.244 575.689 556.834 571.121 560.727 563.139L680.429 317.714C684.322 309.732 682.633 300.15 676.244 293.981L479.821 104.298C473.433 98.1284 463.798 96.7743 455.957 100.944Z" stroke="url(#paint34_linear_589_195)"/>
<path opacity="0.363636" d="M457.205 102.871L214.43 226.571C206.517 230.603 202.1 239.272 203.49 248.044L246.114 517.161C247.503 525.933 254.383 532.813 263.154 534.202L532.272 576.826C541.044 578.215 549.712 573.798 553.744 565.885L677.444 323.111C681.476 315.198 679.954 305.588 673.674 299.308L481.007 106.641C474.727 100.361 465.118 98.8394 457.205 102.871Z" stroke="url(#paint35_linear_589_195)"/>
<path opacity="0.373737" d="M458.428 104.872L214.06 224.059C206.078 227.952 201.51 236.542 202.746 245.337L240.585 514.575C241.821 523.37 248.58 530.369 257.326 531.911L525.08 579.123C533.826 580.665 542.57 576.4 546.74 568.559L674.382 328.499C678.551 320.657 677.197 311.023 671.028 304.634L482.161 109.057C475.992 102.669 466.41 100.979 458.428 104.872Z" stroke="url(#paint36_linear_589_195)"/>
<path opacity="0.383838" d="M459.625 106.944L213.747 221.599C205.698 225.352 200.981 233.862 202.063 242.677L235.126 511.951C236.208 520.766 242.844 527.881 251.562 529.576L517.874 581.342C526.592 583.037 535.409 578.925 539.715 571.157L671.242 333.876C675.548 326.108 674.362 316.452 668.305 309.956L483.282 111.543C477.225 105.047 467.674 103.191 459.625 106.944Z" stroke="url(#paint37_linear_589_195)"/>
<path opacity="0.393939" d="M460.793 109.088L213.488 219.195C205.375 222.808 200.51 231.233 201.439 240.066L229.735 509.292C230.664 518.124 237.174 525.354 245.861 527.201L510.654 583.484C519.341 585.331 528.229 581.374 532.67 573.682L668.024 339.242C672.465 331.55 671.448 321.874 665.505 315.274L484.366 114.099C478.423 107.499 468.906 105.476 460.793 109.088Z" stroke="url(#paint38_linear_589_195)"/>
<path opacity="0.40404" d="M461.933 111.302L213.285 216.846C205.11 220.316 200.099 228.656 200.873 237.503L224.415 506.596C225.19 515.444 231.572 522.786 240.226 524.784L503.424 585.548C512.077 587.546 521.033 583.745 525.607 576.132L664.73 344.593C669.304 336.98 668.456 327.288 662.629 320.586L485.414 116.723C479.588 110.02 470.108 107.831 461.933 111.302Z" stroke="url(#paint39_linear_589_195)"/>
<path opacity="0.414141" d="M463.042 113.586L213.135 214.555C204.901 217.882 199.745 226.133 200.364 234.993L219.166 503.869C219.786 512.729 226.039 520.182 234.657 522.33L496.184 587.536C504.801 589.685 513.822 586.04 518.528 578.509L661.359 349.932C666.065 342.4 665.386 332.694 659.678 325.891L486.425 119.417C480.716 112.613 471.276 110.26 463.042 113.586Z" stroke="url(#paint40_linear_589_195)"/>
<path opacity="0.424242" d="M464.12 115.94L213.037 212.322C204.746 215.505 199.447 223.664 199.912 232.533L213.988 501.11C214.452 509.979 220.575 517.54 229.154 519.839L488.935 589.447C497.514 591.745 506.597 588.259 511.434 580.81L657.912 355.254C662.749 347.805 662.24 338.09 656.651 331.188L487.398 122.178C481.809 115.276 472.411 112.758 464.12 115.94Z" stroke="url(#paint41_linear_589_195)"/>
<path opacity="0.434343" d="M465.164 118.362L212.991 210.146C204.645 213.184 199.205 221.25 199.514 230.125L208.88 498.32C209.19 507.195 215.18 514.862 223.717 517.31L481.679 591.279C490.216 593.727 499.358 590.4 504.325 583.037L654.388 360.558C659.355 353.196 659.015 343.472 653.547 336.474L488.33 125.005C482.862 118.007 473.51 115.325 465.164 118.362Z" stroke="url(#paint42_linear_589_195)"/>
<path opacity="0.444444" d="M466.176 120.853L212.994 208.03C204.597 210.922 199.017 218.891 199.172 227.771L203.845 495.5C204 504.38 209.855 512.15 218.348 514.747L474.418 593.035C482.911 595.632 492.11 592.464 497.204 585.189L650.79 365.845C655.884 358.57 655.715 348.842 650.37 341.749L489.222 127.899C483.877 120.806 474.573 117.961 466.176 120.853Z" stroke="url(#paint43_linear_589_195)"/>
<path opacity="0.454545" d="M467.152 123.411L213.047 205.975C204.6 208.719 198.882 216.59 198.882 225.471L198.882 492.654C198.882 501.535 204.6 509.406 213.047 512.15L467.152 594.714C475.599 597.458 484.852 594.452 490.072 587.267L647.117 371.112C652.338 363.927 652.338 354.198 647.117 347.013L490.072 130.858C484.852 123.673 475.599 120.667 467.152 123.411Z" stroke="url(#paint44_linear_589_195)"/>
<path opacity="0.464646" d="M468.092 126.035L213.147 203.979C204.654 206.576 198.798 214.346 198.643 223.226L193.991 489.78C193.836 498.659 199.416 506.629 207.813 509.521L459.883 596.315C468.281 599.207 477.585 596.362 482.93 589.269L643.37 376.358C648.715 369.265 648.885 359.537 643.791 352.262L490.878 133.881C485.784 126.606 476.585 123.438 468.092 126.035Z" stroke="url(#paint45_linear_589_195)"/>
<path opacity="0.474747" d="M468.995 128.724L213.293 202.045C204.756 204.493 198.766 212.16 198.456 221.035L189.173 486.88C188.863 495.756 194.303 503.822 202.649 506.859L452.613 597.839C460.959 600.876 470.311 598.194 475.779 591.196L639.549 381.58C645.017 374.582 645.356 364.858 640.39 357.496L491.641 136.966C486.675 129.603 477.532 126.276 468.995 128.724Z" stroke="url(#paint46_linear_589_195)"/>
<path opacity="0.484848" d="M469.86 131.478L213.485 200.173C204.907 202.472 198.784 210.033 198.319 218.902L184.428 483.957C183.963 492.826 189.262 500.985 197.553 504.168L445.343 599.286C453.634 602.468 463.032 599.95 468.621 593.048L635.655 386.779C641.244 379.877 641.753 370.161 636.916 362.713L492.358 140.114C487.521 132.666 478.438 129.179 469.86 131.478Z" stroke="url(#paint47_linear_589_195)"/>
<path opacity="0.494949" d="M470.685 134.295L213.721 198.364C205.104 200.512 198.85 207.965 198.23 216.825L179.757 481.011C179.137 489.87 184.293 498.121 192.527 501.448L438.074 600.655C446.309 603.982 455.749 601.629 461.458 594.825L631.688 391.953C637.396 385.15 638.075 375.444 633.369 367.912L493.03 143.323C488.323 135.791 479.303 132.147 470.685 134.295Z" stroke="url(#paint48_linear_589_195)"/>
<path opacity="0.50505" d="M471.47 137.177L214 196.619C205.346 198.617 198.963 205.96 198.189 214.807L175.159 478.045C174.385 486.892 179.396 495.232 187.571 498.702L430.808 601.95C438.983 605.42 448.463 603.231 454.29 596.529L627.649 397.102C633.475 390.399 634.323 380.707 629.749 373.094L493.654 146.594C489.08 138.981 480.124 135.18 471.47 137.177Z" stroke="url(#paint49_linear_589_195)"/>
<path opacity="0.515152" d="M472.214 140.121L214.32 194.938C205.633 196.785 199.123 204.015 198.195 212.848L170.635 475.059C169.707 483.891 174.571 492.317 182.685 495.929L423.546 603.167C431.659 606.78 441.176 604.757 447.118 598.157L623.538 402.223C629.481 395.623 630.498 385.947 626.057 378.256L494.23 149.923C489.789 142.232 480.901 138.275 472.214 140.121Z" stroke="url(#paint50_linear_589_195)"/>
<path opacity="0.525253" d="M472.915 143.126L214.681 193.322C205.963 195.016 199.327 202.132 198.245 210.947L166.185 472.053C165.103 480.868 169.82 489.378 177.869 493.131L416.289 604.308C424.338 608.062 433.888 606.205 439.945 599.71L619.357 407.314C625.414 400.819 626.6 391.163 622.294 383.395L494.756 153.311C490.451 145.543 481.633 141.431 472.915 143.126Z" stroke="url(#paint51_linear_589_195)"/>
<path opacity="0.535354" d="M473.573 146.192L215.081 191.771C206.334 193.313 199.576 200.312 198.34 209.107L161.81 469.032C160.574 477.827 165.141 486.417 173.124 490.31L409.039 605.374C417.021 609.267 426.603 607.578 432.772 601.189L615.106 412.377C621.275 405.988 622.629 396.354 618.46 388.512L495.233 156.756C491.063 148.915 482.319 144.65 473.573 146.192Z" stroke="url(#paint52_linear_589_195)"/>
<path opacity="0.545455" d="M474.186 149.317L215.519 190.286C206.747 191.675 199.867 198.555 198.478 207.327L157.509 465.994C156.12 474.766 160.537 483.435 168.45 487.467L401.797 606.363C409.71 610.395 419.32 608.873 425.6 602.593L610.785 417.408C617.065 411.128 618.587 401.518 614.555 393.605L495.659 160.258C491.627 152.345 482.958 147.928 474.186 149.317Z" stroke="url(#paint53_linear_589_195)"/>
<path opacity="0.555556" d="M474.754 152.501L215.993 188.867C207.198 190.103 200.2 196.862 198.657 205.608L153.282 462.942C151.74 471.688 156.005 480.433 163.847 484.602L394.565 607.277C402.406 611.447 412.041 610.093 418.429 603.923L606.396 422.406C612.784 416.237 614.474 406.656 610.581 398.673L496.032 163.815C492.139 155.832 483.549 151.265 474.754 152.501Z" stroke="url(#paint54_linear_589_195)"/>
<path opacity="0.565657" d="M475.276 155.743L216.503 187.516C207.688 188.598 200.572 195.234 198.878 203.952L149.131 459.878C147.436 468.596 151.548 477.414 159.315 481.719L387.343 608.117C395.111 612.423 404.767 611.237 411.263 605.18L601.938 427.372C608.434 421.315 610.29 411.765 606.537 403.716L496.353 167.426C492.6 159.377 484.091 154.66 475.276 155.743Z" stroke="url(#paint55_linear_589_195)"/>
<path opacity="0.575758" d="M475.75 159.041L217.047 186.232C208.214 187.16 200.984 193.67 199.137 202.357L145.054 456.801C143.207 465.488 147.164 474.376 154.856 478.817L380.134 608.881C387.825 613.322 397.501 612.305 404.101 606.362L597.414 432.302C604.014 426.36 606.037 416.843 602.425 408.73L496.621 171.09C493.008 162.977 484.583 158.112 475.75 159.041Z" stroke="url(#paint56_linear_589_195)"/>
<path opacity="0.585859" d="M476.177 162.396L217.623 185.016C208.776 185.79 201.433 192.173 199.435 200.827L141.051 453.715C139.054 462.369 142.855 471.325 150.468 475.899L372.938 609.572C380.55 614.146 390.243 613.298 396.945 607.472L592.823 437.198C599.526 431.371 601.714 421.891 598.244 413.716L496.834 174.808C493.363 166.633 485.024 161.622 476.177 162.396Z" stroke="url(#paint57_linear_589_195)"/>
<path opacity="0.59596" d="M476.554 165.805L218.231 183.868C209.372 184.488 201.919 190.742 199.77 199.359L137.124 450.62C134.975 459.237 138.62 468.258 146.152 472.964L365.756 610.189C373.288 614.895 382.993 614.216 389.797 608.508L588.166 442.056C594.97 436.347 597.323 426.907 593.996 418.672L496.991 178.575C493.664 170.341 485.413 165.185 476.554 165.805Z" stroke="url(#paint58_linear_589_195)"/>
<path opacity="0.606061" d="M476.881 169.268L218.87 182.79C210.001 183.255 202.44 189.377 200.141 197.956L133.272 447.518C130.973 456.096 134.46 465.179 141.908 470.016L358.591 610.732C366.04 615.569 375.756 615.06 382.657 609.471L583.445 446.876C590.347 441.287 592.865 431.889 589.682 423.598L497.093 182.393C493.91 174.102 485.75 168.803 476.881 169.268Z" stroke="url(#paint59_linear_589_195)"/>
<path opacity="0.616162" d="M477.157 172.784L219.537 181.78C210.661 182.09 202.995 188.08 200.547 196.617L129.493 444.409C127.045 452.946 130.373 462.088 137.736 467.054L351.443 611.202C358.806 616.168 368.529 615.828 375.528 610.361L578.659 451.657C585.658 446.189 588.339 436.837 585.302 428.491L497.137 186.26C494.099 177.914 486.033 172.474 477.157 172.784Z" stroke="url(#paint60_linear_589_195)"/>
<path opacity="0.626263" d="M477.382 176.352L220.232 180.841C211.352 180.996 203.582 186.851 200.985 195.344L125.79 441.296C123.194 449.789 126.361 458.988 133.636 464.082L344.314 611.6C351.589 616.694 361.317 616.524 368.409 611.179L573.81 456.399C580.903 451.054 583.747 441.75 580.856 433.352L497.123 190.175C494.232 181.777 486.262 176.197 477.382 176.352Z" stroke="url(#paint61_linear_589_195)"/>
<path opacity="0.636364" d="M477.555 179.971L220.953 179.971C212.072 179.971 204.201 185.69 201.456 194.136L122.162 438.179C119.418 446.626 122.424 455.879 129.609 461.099L337.204 611.926C344.389 617.146 354.119 617.146 361.304 611.926L568.899 461.099C576.084 455.879 579.09 446.626 576.346 438.179L497.052 194.136C494.307 185.69 486.436 179.971 477.555 179.971Z" stroke="url(#paint62_linear_589_195)"/>
<path opacity="0.646465" d="M477.674 183.64L221.699 179.172C212.819 179.017 204.849 184.597 201.958 192.994L118.608 435.06C115.716 443.458 118.561 452.762 125.654 458.107L330.116 612.18C337.209 617.525 346.936 617.694 354.211 612.6L563.926 465.757C571.201 460.663 574.368 451.463 571.772 442.97L496.92 198.143C494.324 189.65 486.554 183.795 477.674 183.64Z" stroke="url(#paint63_linear_589_195)"/>
<path opacity="0.656566" d="M477.739 187.357L222.468 178.443C213.593 178.133 205.527 183.573 202.489 191.919L115.128 431.941C112.091 440.287 114.772 449.639 121.771 455.107L323.05 612.363C330.048 617.831 339.771 618.17 347.134 613.204L558.892 470.371C566.255 465.405 569.583 456.263 567.135 447.726L496.73 202.194C494.282 193.657 486.615 187.667 477.739 187.357Z" stroke="url(#paint64_linear_589_195)"/>
<path opacity="0.666667" d="M477.75 191.121L223.261 177.784C214.392 177.319 206.232 182.618 203.049 190.909L111.723 428.822C108.541 437.113 111.059 446.511 117.961 452.1L316.007 612.475C322.909 618.064 332.625 618.573 340.074 613.736L553.799 474.941C561.248 470.104 564.734 461.021 562.436 452.442L496.479 206.287C494.18 197.709 486.619 191.586 477.75 191.121Z" stroke="url(#paint65_linear_589_195)"/>
<path opacity="0.676768" d="M477.705 194.933L224.073 177.197C215.214 176.578 206.963 181.733 203.636 189.968L108.392 425.705C105.065 433.94 107.419 443.38 114.222 449.088L308.99 612.518C315.793 618.226 325.499 618.905 333.03 614.199L548.647 479.466C556.179 474.76 559.823 465.739 557.675 457.122L496.166 210.424C494.017 201.806 486.564 195.552 477.705 194.933Z" stroke="url(#paint66_linear_589_195)"/>
<path opacity="0.686869" d="M477.604 198.79L224.906 176.681C216.059 175.907 207.719 180.918 204.249 189.093L105.135 422.591C101.665 430.767 103.854 440.246 110.556 446.073L301.998 612.491C308.701 618.317 318.393 619.165 326.006 614.591L543.437 483.945C551.05 479.371 554.851 470.415 552.854 461.762L495.792 214.6C493.794 205.947 486.451 199.564 477.604 198.79Z" stroke="url(#paint67_linear_589_195)"/>
<path opacity="0.69697" d="M477.446 202.69L225.757 176.237C216.925 175.309 208.499 180.173 204.887 188.286L101.952 419.482C98.3396 427.595 100.362 437.112 106.962 443.055L295.034 612.395C301.634 618.338 311.31 619.355 319.001 614.914L538.171 488.377C545.862 483.936 549.819 475.048 547.973 466.361L495.355 218.816C493.509 210.129 486.279 203.619 477.446 202.69Z" stroke="url(#paint68_linear_589_195)"/>
<path opacity="0.707071" d="M477.231 206.636L226.625 175.865C217.81 174.783 209.301 179.5 205.548 187.549L98.8419 416.38C95.0885 424.429 96.945 433.98 103.44 440.036L288.098 612.233C294.593 618.289 304.25 619.475 312.017 615.169L532.848 492.761C540.616 488.455 544.727 479.638 543.033 470.92L494.856 223.071C493.161 214.353 486.046 207.718 477.231 206.636Z" stroke="url(#paint69_linear_589_195)"/>
<path opacity="0.717172" d="M476.957 210.622L227.509 175.564C218.714 174.328 210.124 178.896 206.231 186.878L95.805 413.284C91.9118 421.266 93.6013 430.848 99.9898 437.017L281.191 612.001C287.58 618.17 297.214 619.525 305.056 615.355L527.47 497.095C535.312 492.926 539.577 484.181 538.035 475.435L494.293 227.362C492.75 218.616 485.752 211.858 476.957 210.622Z" stroke="url(#paint70_linear_589_195)"/>
<path opacity="0.727273" d="M476.625 214.65L228.407 175.336C219.635 173.947 210.966 178.364 206.934 186.277L92.8412 410.197C88.8092 418.11 90.3312 427.72 96.6111 434L274.315 611.704C280.595 617.984 290.205 619.506 298.118 615.474L522.038 501.381C529.952 497.349 534.369 488.68 532.979 479.908L493.665 231.69C492.276 222.919 485.397 216.039 476.625 214.65Z" stroke="url(#paint71_linear_589_195)"/>
<path opacity="0.737374" d="M476.234 218.717L229.319 175.179C220.572 173.637 211.828 177.902 207.658 185.744L89.9506 407.12C85.7812 414.962 87.1352 424.596 93.3046 430.985L267.472 611.34C273.642 617.729 283.223 619.418 291.205 615.525L516.555 505.615C524.537 501.722 529.104 493.131 527.868 484.337L492.974 236.053C491.738 227.258 484.98 220.259 476.234 218.717Z" stroke="url(#paint72_linear_589_195)"/>
<path opacity="0.747475" d="M475.782 222.824L230.241 175.096C221.523 173.401 212.706 177.513 208.4 185.281L87.1314 404.055C82.8257 411.822 84.0114 421.479 90.0683 427.974L260.661 610.912C266.718 617.408 276.268 619.264 284.317 615.511L511.018 509.799C519.067 506.045 523.784 497.536 522.701 488.721L492.217 240.449C491.135 231.634 484.5 224.519 475.782 222.824Z" stroke="url(#paint73_linear_589_195)"/>
<path opacity="0.757576" d="M475.269 226.967L231.174 175.083C222.487 173.237 213.599 177.194 209.159 184.885L84.3843 401C79.9437 408.692 80.9607 418.368 86.9033 424.968L253.884 610.418C259.827 617.018 269.343 619.041 277.456 615.429L505.43 513.928C513.544 510.316 518.408 501.89 517.48 493.058L491.395 244.876C490.467 236.044 483.957 228.814 475.269 226.967Z" stroke="url(#paint74_linear_589_195)"/>
<path opacity="0.767677" d="M474.697 231.148L232.117 175.144C223.463 173.146 214.507 176.947 209.933 184.56L81.7091 397.961C77.135 405.573 77.9829 415.266 83.8095 421.968L247.142 609.861C252.969 616.564 262.449 618.753 270.624 615.283L499.794 518.006C507.969 514.536 512.98 506.196 512.206 497.349L490.507 249.335C489.733 240.488 483.35 233.145 474.697 231.148Z" stroke="url(#paint75_linear_589_195)"/>
<path opacity="0.777778" d="M474.062 235.364L233.067 175.277C224.449 173.128 215.429 176.773 210.722 184.304L79.1048 394.937C74.3985 402.468 75.0772 412.174 80.7859 418.977L240.437 609.242C246.146 616.045 255.586 618.399 263.82 615.072L494.108 522.03C502.342 518.703 507.498 510.452 506.878 501.593L489.553 253.825C488.933 244.965 482.679 237.512 474.062 235.364Z" stroke="url(#paint76_linear_589_195)"/>
<path opacity="0.787879" d="M473.365 239.614L234.023 175.482C225.445 173.184 216.362 176.67 211.525 184.119L76.5713 391.929C71.7343 399.377 72.2435 409.093 77.8326 415.995L233.769 608.56C239.358 615.462 248.756 617.98 257.047 614.797L488.374 525.999C496.666 522.816 501.964 514.657 501.5 505.788L488.532 258.342C488.067 249.473 481.944 241.912 473.365 239.614Z" stroke="url(#paint77_linear_589_195)"/>
<path opacity="0.79798" d="M472.606 243.895L234.985 175.759C226.448 173.311 217.305 176.638 212.339 184.001L74.108 388.937C69.1417 396.3 69.4813 406.023 74.949 413.021L227.139 607.816C232.607 614.814 241.959 617.496 250.305 614.458L482.594 529.912C490.94 526.874 496.38 518.808 496.07 509.933L487.443 262.886C487.133 254.01 481.143 246.343 472.606 243.895Z" stroke="url(#paint78_linear_589_195)"/>
<path opacity="0.808081" d="M471.784 248.21L235.95 176.108C227.457 173.512 218.258 176.679 213.164 183.954L71.7146 385.965C66.6206 393.24 66.7904 402.968 72.1352 410.061L220.549 607.012C225.893 614.105 235.197 616.949 243.595 614.058L476.769 533.77C485.166 530.878 490.746 522.908 490.591 514.029L486.287 267.457C486.132 258.577 480.277 250.807 471.784 248.21Z" stroke="url(#paint79_linear_589_195)"/>
<path opacity="0.818182" d="M470.899 252.554L236.918 176.529C228.471 173.785 219.218 176.791 213.998 183.976L69.3902 383.012C64.17 390.197 64.17 399.926 69.3902 407.111L213.998 606.147C219.218 613.332 228.471 616.339 236.918 613.594L470.899 537.569C479.345 534.825 485.064 526.954 485.064 518.073L485.064 272.051C485.064 263.17 479.345 255.299 470.899 252.554Z" stroke="url(#paint80_linear_589_195)"/>
<path opacity="0.828283" d="M469.949 256.928L237.887 177.023C229.489 174.131 220.185 176.976 214.84 184.069L67.1346 380.081C61.7898 387.174 61.62 396.902 66.714 404.177L207.489 605.224C212.583 612.499 221.782 615.667 230.275 613.07L464.985 541.312C473.478 538.716 479.333 530.946 479.488 522.066L483.772 276.669C483.927 267.789 478.346 259.82 469.949 256.928Z" stroke="url(#paint81_linear_589_195)"/>
<path opacity="0.838384" d="M468.936 261.33L238.856 177.587C230.511 174.55 221.158 177.232 215.691 184.23L64.9481 377.172C59.4804 384.17 59.1408 393.893 64.1071 401.256L201.023 604.243C205.99 611.606 215.132 614.933 223.669 612.485L459.031 544.996C467.568 542.548 473.558 534.882 473.867 526.006L482.412 281.309C482.722 272.433 477.282 264.367 468.936 261.33Z" stroke="url(#paint82_linear_589_195)"/>
<path opacity="0.848485" d="M467.858 265.759L239.823 178.225C231.532 175.042 222.134 177.56 216.545 184.462L62.8283 374.287C57.2392 381.188 56.73 390.904 61.567 398.353L194.6 603.205C199.437 610.653 208.52 614.14 217.098 611.841L453.034 548.623C461.612 546.324 467.735 538.763 468.2 529.894L480.983 285.97C481.448 277.101 476.149 268.942 467.858 265.759Z" stroke="url(#paint83_linear_589_195)"/>
<path opacity="0.858586" d="M466.716 270.213L240.788 178.932C232.554 175.605 223.114 177.959 217.405 184.762L60.7764 371.425C55.0677 378.228 54.389 387.934 59.0953 395.466L188.221 602.11C192.927 609.642 201.948 613.286 210.565 611.138L446.998 552.188C455.615 550.04 461.869 542.587 462.489 533.727L479.486 290.65C480.106 281.791 474.95 273.54 466.716 270.213Z" stroke="url(#paint84_linear_589_195)"/>
<path opacity="0.868687" d="M465.508 274.692L241.749 179.712C233.573 176.242 224.094 178.43 218.267 185.133L58.7903 368.59C52.9638 375.293 52.1158 384.985 56.69 392.598L181.887 600.96C186.461 608.573 195.417 612.374 204.07 610.376L440.923 555.695C449.576 553.697 455.959 546.354 456.733 537.507L477.92 295.349C478.694 286.502 473.683 278.162 465.508 274.692Z" stroke="url(#paint85_linear_589_195)"/>
<path opacity="0.878788" d="M464.235 279.195L242.704 180.563C234.591 176.951 225.075 178.973 219.132 185.573L56.871 365.782C50.9284 372.382 49.9114 382.058 54.352 389.75L175.6 599.757C180.04 607.448 188.928 611.405 197.615 609.559L434.811 559.141C443.498 557.294 450.008 550.064 450.937 541.232L476.284 300.065C477.213 291.233 472.348 282.807 464.235 279.195Z" stroke="url(#paint86_linear_589_195)"/>
<path opacity="0.888889" d="M462.896 283.719L243.653 181.484C235.604 177.731 226.054 179.587 219.997 186.082L55.0163 363.002C48.9594 369.497 47.7737 379.154 52.0794 386.922L169.358 598.499C173.664 606.266 182.482 610.378 191.2 608.683L428.662 562.525C437.38 560.831 444.016 553.715 445.098 544.9L474.579 304.796C475.661 295.981 470.945 287.472 462.896 283.719Z" stroke="url(#paint87_linear_589_195)"/>
<path opacity="0.89899" d="M461.49 288.263L244.594 182.476C236.612 178.583 227.03 180.272 220.861 186.661L53.2261 360.251C47.0568 366.64 45.7027 376.275 49.8722 384.116L163.165 597.189C167.334 605.03 176.079 609.295 184.825 607.753L422.478 565.848C431.225 564.306 437.983 557.307 439.219 548.513L472.804 309.542C474.04 300.747 469.473 292.157 461.49 288.263Z" stroke="url(#paint88_linear_589_195)"/>
<path opacity="0.909091" d="M460.02 292.829L245.526 183.539C237.613 179.507 228.004 181.029 221.724 187.309L51.5008 357.532C45.2208 363.812 43.6989 373.421 47.7308 381.335L157.021 595.828C161.053 603.741 169.722 608.158 178.493 606.769L416.261 569.11C425.033 567.721 431.913 560.841 433.302 552.069L470.961 314.302C472.35 305.53 467.933 296.861 460.02 292.829Z" stroke="url(#paint89_linear_589_195)"/>
<path opacity="0.919192" d="M458.482 297.411L246.448 184.67C238.606 180.501 228.972 181.855 222.583 188.024L49.8382 354.842C43.4496 361.012 41.7601 370.593 45.6534 378.575L150.926 594.415C154.819 602.398 163.409 606.965 172.204 605.729L410.011 572.308C418.806 571.072 425.804 564.313 427.346 555.567L469.047 319.071C470.589 310.325 466.324 301.58 458.482 297.411Z" stroke="url(#paint90_linear_589_195)"/>
<path opacity="0.929293" d="M456.879 302.011L247.358 185.872C239.59 181.566 229.934 182.752 223.438 188.809L48.2382 352.186C41.7429 358.243 39.8865 367.793 43.6398 375.842L144.881 592.954C148.634 601.003 157.143 605.72 165.958 604.637L403.729 575.443C412.544 574.36 419.659 567.725 421.354 559.007L467.063 323.852C468.758 315.134 464.646 306.317 456.879 302.011Z" stroke="url(#paint91_linear_589_195)"/>
<path opacity="0.939394" d="M455.208 306.627L248.255 187.143C240.564 182.702 230.888 183.719 224.288 189.662L46.7002 349.563C40.1002 355.506 38.0774 365.022 41.6897 373.136L138.887 591.444C142.499 599.557 150.925 604.422 159.757 603.494L397.417 578.515C406.249 577.586 413.479 571.076 415.326 562.389L465.01 328.643C466.857 319.956 462.899 311.068 455.208 306.627Z" stroke="url(#paint92_linear_589_195)"/>
<path opacity="0.949495" d="M453.471 311.259L249.139 188.484C241.526 183.91 231.834 184.757 225.131 190.584L45.2231 346.976C38.5204 352.802 36.3318 362.282 39.8019 370.457L132.945 589.888C136.415 598.063 144.754 603.074 153.602 602.3L391.075 581.524C399.923 580.75 407.265 574.367 409.263 565.713L462.887 333.442C464.885 324.789 461.083 315.833 453.471 311.259Z" stroke="url(#paint93_linear_589_195)"/>
<path opacity="0.959596" d="M451.667 315.902L250.007 189.891C242.475 185.185 232.77 185.863 225.967 191.572L43.8067 344.422C37.0033 350.131 34.6496 359.571 37.9766 367.806L127.055 588.283C130.382 596.518 138.633 601.674 147.493 601.054L384.706 584.466C393.566 583.847 401.019 577.593 403.167 568.976L460.695 338.246C462.843 329.629 459.198 320.608 451.667 315.902Z" stroke="url(#paint94_linear_589_195)"/>
<path opacity="0.969697" d="M449.795 320.559L250.858 191.368C243.41 186.531 233.694 187.04 226.792 192.629L42.4494 341.907C35.5474 347.496 33.0293 356.894 36.212 365.185L121.219 586.635C124.401 594.926 132.561 600.225 141.43 599.76L378.31 587.346C387.179 586.881 394.74 580.758 397.039 572.18L458.432 343.057C460.73 334.479 457.244 325.396 449.795 320.559Z" stroke="url(#paint95_linear_589_195)"/>
<path opacity="0.979798" d="M447.857 325.225L251.692 192.91C244.33 187.944 234.606 188.283 227.608 193.751L41.151 339.427C34.1526 344.895 31.4709 354.247 34.5084 362.593L115.436 584.94C118.474 593.286 126.54 598.726 135.415 598.416L371.888 590.159C380.764 589.849 388.431 583.859 390.879 575.322L456.099 347.871C458.547 339.333 455.22 330.191 447.857 325.225Z" stroke="url(#paint96_linear_589_195)"/>
<path opacity="0.989899" d="M445.852 329.902L252.508 194.521C245.233 189.427 235.505 189.597 228.412 194.942L39.9109 336.988C32.8181 342.333 29.9736 351.637 32.865 360.034L109.709 583.204C112.6 591.601 120.57 597.182 129.45 597.027L365.443 592.908C374.323 592.753 382.093 586.897 384.69 578.404L453.698 352.688C456.295 344.195 453.127 334.996 445.852 329.902Z" stroke="url(#paint97_linear_589_195)"/>
<path d="M443.78 334.588L253.303 196.198C246.119 190.978 236.389 190.978 229.204 196.198L38.728 334.588C31.543 339.808 28.5365 349.061 31.281 357.507L104.036 581.426C106.781 589.872 114.652 595.591 123.533 595.591H358.975C367.856 595.591 375.727 589.872 378.471 581.426L451.227 357.507C453.971 349.061 450.965 339.808 443.78 334.588Z" stroke="url(#paint98_linear_589_195)"/>
<defs>
<linearGradient id="paint0_linear_589_195" x1="558.066" y1="473.303" x2="512.706" y2="150.554" gradientUnits="userSpaceOnUse">
<stop stop-color="#FF1CF7"/>
<stop offset="1" stop-color="#885EFE"/>
</linearGradient>
<linearGradient id="paint1_linear_589_195" x1="552.264" y1="474.387" x2="512.617" y2="151.486" gradientUnits="userSpaceOnUse">
<stop stop-color="#FF1CF7"/>
<stop offset="1" stop-color="#885EFE"/>
</linearGradient>
<linearGradient id="paint2_linear_589_195" x1="546.467" y1="475.422" x2="512.523" y2="152.469" gradientUnits="userSpaceOnUse">
<stop stop-color="#FF1CF7"/>
<stop offset="1" stop-color="#885EFE"/>
</linearGradient>
<linearGradient id="paint3_linear_589_195" x1="540.674" y1="476.409" x2="512.423" y2="153.505" gradientUnits="userSpaceOnUse">
<stop stop-color="#FF1CF7"/>
<stop offset="1" stop-color="#885EFE"/>
</linearGradient>
<linearGradient id="paint4_linear_589_195" x1="534.887" y1="477.346" x2="512.317" y2="154.591" gradientUnits="userSpaceOnUse">
<stop stop-color="#FF1CF7"/>
<stop offset="1" stop-color="#885EFE"/>
</linearGradient>
<linearGradient id="paint5_linear_589_195" x1="529.106" y1="478.233" x2="512.204" y2="155.728" gradientUnits="userSpaceOnUse">
<stop stop-color="#FF1CF7"/>
<stop offset="1" stop-color="#885EFE"/>
</linearGradient>
<linearGradient id="paint6_linear_589_195" x1="523.333" y1="479.071" x2="512.083" y2="156.915" gradientUnits="userSpaceOnUse">
<stop stop-color="#FF1CF7"/>
<stop offset="1" stop-color="#885EFE"/>
</linearGradient>
<linearGradient id="paint7_linear_589_195" x1="517.568" y1="479.862" x2="511.953" y2="158.153" gradientUnits="userSpaceOnUse">
<stop stop-color="#FF1CF7"/>
<stop offset="1" stop-color="#885EFE"/>
</linearGradient>
<linearGradient id="paint8_linear_589_195" x1="511.813" y1="480.604" x2="511.813" y2="159.441" gradientUnits="userSpaceOnUse">
<stop stop-color="#FF1CF7"/>
<stop offset="1" stop-color="#885EFE"/>
</linearGradient>
<linearGradient id="paint9_linear_589_195" x1="506.067" y1="481.297" x2="511.662" y2="160.778" gradientUnits="userSpaceOnUse">
<stop stop-color="#FF1CF7"/>
<stop offset="1" stop-color="#885EFE"/>
</linearGradient>
<linearGradient id="paint10_linear_589_195" x1="500.333" y1="481.945" x2="511.5" y2="162.166" gradientUnits="userSpaceOnUse">
<stop stop-color="#FF1CF7"/>
<stop offset="1" stop-color="#885EFE"/>
</linearGradient>
<linearGradient id="paint11_linear_589_195" x1="494.609" y1="482.543" x2="511.324" y2="163.601" gradientUnits="userSpaceOnUse">
<stop stop-color="#FF1CF7"/>
<stop offset="1" stop-color="#885EFE"/>
</linearGradient>
<linearGradient id="paint12_linear_589_195" x1="488.899" y1="483.095" x2="511.136" y2="165.087" gradientUnits="userSpaceOnUse">
<stop stop-color="#FF1CF7"/>
<stop offset="1" stop-color="#885EFE"/>
</linearGradient>
<linearGradient id="paint13_linear_589_195" x1="483.202" y1="483.6" x2="510.934" y2="166.621" gradientUnits="userSpaceOnUse">
<stop stop-color="#FF1CF7"/>
<stop offset="1" stop-color="#885EFE"/>
</linearGradient>
<linearGradient id="paint14_linear_589_195" x1="477.519" y1="484.058" x2="510.717" y2="168.203" gradientUnits="userSpaceOnUse">
<stop stop-color="#FF1CF7"/>
<stop offset="1" stop-color="#885EFE"/>
</linearGradient>
<linearGradient id="paint15_linear_589_195" x1="471.851" y1="484.47" x2="510.483" y2="169.833" gradientUnits="userSpaceOnUse">
<stop stop-color="#FF1CF7"/>
<stop offset="1" stop-color="#885EFE"/>
</linearGradient>
<linearGradient id="paint16_linear_589_195" x1="466.198" y1="484.837" x2="510.233" y2="171.511" gradientUnits="userSpaceOnUse">
<stop stop-color="#FF1CF7"/>
<stop offset="1" stop-color="#885EFE"/>
</linearGradient>
<linearGradient id="paint17_linear_589_195" x1="460.562" y1="485.157" x2="509.966" y2="173.235" gradientUnits="userSpaceOnUse">
<stop stop-color="#FF1CF7"/>
<stop offset="1" stop-color="#885EFE"/>
</linearGradient>
<linearGradient id="paint18_linear_589_195" x1="454.944" y1="485.434" x2="509.68" y2="175.007" gradientUnits="userSpaceOnUse">
<stop stop-color="#FF1CF7"/>
<stop offset="1" stop-color="#885EFE"/>
</linearGradient>
<linearGradient id="paint19_linear_589_195" x1="449.343" y1="485.663" x2="509.376" y2="176.823" gradientUnits="userSpaceOnUse">
<stop stop-color="#FF1CF7"/>
<stop offset="1" stop-color="#885EFE"/>
</linearGradient>
<linearGradient id="paint20_linear_589_195" x1="443.762" y1="485.851" x2="509.051" y2="178.687" gradientUnits="userSpaceOnUse">
<stop stop-color="#FF1CF7"/>
<stop offset="1" stop-color="#885EFE"/>
</linearGradient>
<linearGradient id="paint21_linear_589_195" x1="438.199" y1="485.993" x2="508.706" y2="180.595" gradientUnits="userSpaceOnUse">
<stop stop-color="#FF1CF7"/>
<stop offset="1" stop-color="#885EFE"/>
</linearGradient>
<linearGradient id="paint22_linear_589_195" x1="432.657" y1="486.093" x2="508.339" y2="182.549" gradientUnits="userSpaceOnUse">
<stop stop-color="#FF1CF7"/>
<stop offset="1" stop-color="#885EFE"/>
</linearGradient>
<linearGradient id="paint23_linear_589_195" x1="427.137" y1="486.15" x2="507.951" y2="184.548" gradientUnits="userSpaceOnUse">
<stop stop-color="#FF1CF7"/>
<stop offset="1" stop-color="#885EFE"/>
</linearGradient>
<linearGradient id="paint24_linear_589_195" x1="421.638" y1="486.164" x2="507.539" y2="186.589" gradientUnits="userSpaceOnUse">
<stop stop-color="#FF1CF7"/>
<stop offset="1" stop-color="#885EFE"/>
</linearGradient>
<linearGradient id="paint25_linear_589_195" x1="416.16" y1="486.135" x2="507.103" y2="188.674" gradientUnits="userSpaceOnUse">
<stop stop-color="#FF1CF7"/>
<stop offset="1" stop-color="#885EFE"/>
</linearGradient>
<linearGradient id="paint26_linear_589_195" x1="410.707" y1="486.066" x2="506.644" y2="190.803" gradientUnits="userSpaceOnUse">
<stop stop-color="#FF1CF7"/>
<stop offset="1" stop-color="#885EFE"/>
</linearGradient>
<linearGradient id="paint27_linear_589_195" x1="405.278" y1="485.955" x2="506.159" y2="192.974" gradientUnits="userSpaceOnUse">
<stop stop-color="#FF1CF7"/>
<stop offset="1" stop-color="#885EFE"/>
</linearGradient>
<linearGradient id="paint28_linear_589_195" x1="399.873" y1="485.805" x2="505.649" y2="195.188" gradientUnits="userSpaceOnUse">
<stop stop-color="#FF1CF7"/>
<stop offset="1" stop-color="#885EFE"/>
</linearGradient>
<linearGradient id="paint29_linear_589_195" x1="394.493" y1="485.613" x2="505.112" y2="197.441" gradientUnits="userSpaceOnUse">
<stop stop-color="#FF1CF7"/>
<stop offset="1" stop-color="#885EFE"/>
</linearGradient>
<linearGradient id="paint30_linear_589_195" x1="389.139" y1="485.383" x2="504.547" y2="199.737" gradientUnits="userSpaceOnUse">
<stop stop-color="#FF1CF7"/>
<stop offset="1" stop-color="#885EFE"/>
</linearGradient>
<linearGradient id="paint31_linear_589_195" x1="383.812" y1="485.112" x2="503.955" y2="202.072" gradientUnits="userSpaceOnUse">
<stop stop-color="#FF1CF7"/>
<stop offset="1" stop-color="#885EFE"/>
</linearGradient>
<linearGradient id="paint32_linear_589_195" x1="378.512" y1="484.805" x2="503.335" y2="204.447" gradientUnits="userSpaceOnUse">
<stop stop-color="#FF1CF7"/>
<stop offset="1" stop-color="#885EFE"/>
</linearGradient>
<linearGradient id="paint33_linear_589_195" x1="373.239" y1="484.458" x2="502.685" y2="206.861" gradientUnits="userSpaceOnUse">
<stop stop-color="#FF1CF7"/>
<stop offset="1" stop-color="#885EFE"/>
</linearGradient>
<linearGradient id="paint34_linear_589_195" x1="367.995" y1="484.076" x2="502.005" y2="209.315" gradientUnits="userSpaceOnUse">
<stop stop-color="#FF1CF7"/>
<stop offset="1" stop-color="#885EFE"/>
</linearGradient>
<linearGradient id="paint35_linear_589_195" x1="362.78" y1="483.656" x2="501.295" y2="211.805" gradientUnits="userSpaceOnUse">
<stop stop-color="#FF1CF7"/>
<stop offset="1" stop-color="#885EFE"/>
</linearGradient>
<linearGradient id="paint36_linear_589_195" x1="357.595" y1="483.2" x2="500.554" y2="214.334" gradientUnits="userSpaceOnUse">
<stop stop-color="#FF1CF7"/>
<stop offset="1" stop-color="#885EFE"/>
</linearGradient>
<linearGradient id="paint37_linear_589_195" x1="352.441" y1="482.708" x2="499.782" y2="216.898" gradientUnits="userSpaceOnUse">
<stop stop-color="#FF1CF7"/>
<stop offset="1" stop-color="#885EFE"/>
</linearGradient>
<linearGradient id="paint38_linear_589_195" x1="347.316" y1="482.182" x2="498.976" y2="219.499" gradientUnits="userSpaceOnUse">
<stop stop-color="#FF1CF7"/>
<stop offset="1" stop-color="#885EFE"/>
</linearGradient>
<linearGradient id="paint39_linear_589_195" x1="342.223" y1="481.62" x2="498.139" y2="222.134" gradientUnits="userSpaceOnUse">
<stop stop-color="#FF1CF7"/>
<stop offset="1" stop-color="#885EFE"/>
</linearGradient>
<linearGradient id="paint40_linear_589_195" x1="337.162" y1="481.027" x2="497.267" y2="224.805" gradientUnits="userSpaceOnUse">
<stop stop-color="#FF1CF7"/>
<stop offset="1" stop-color="#885EFE"/>
</linearGradient>
<linearGradient id="paint41_linear_589_195" x1="332.134" y1="480.4" x2="496.363" y2="227.51" gradientUnits="userSpaceOnUse">
<stop stop-color="#FF1CF7"/>
<stop offset="1" stop-color="#885EFE"/>
</linearGradient>
<linearGradient id="paint42_linear_589_195" x1="327.138" y1="479.74" x2="495.423" y2="230.247" gradientUnits="userSpaceOnUse">
<stop stop-color="#FF1CF7"/>
<stop offset="1" stop-color="#885EFE"/>
</linearGradient>
<linearGradient id="paint43_linear_589_195" x1="322.176" y1="479.048" x2="494.448" y2="233.018" gradientUnits="userSpaceOnUse">
<stop stop-color="#FF1CF7"/>
<stop offset="1" stop-color="#885EFE"/>
</linearGradient>
<linearGradient id="paint44_linear_589_195" x1="317.248" y1="478.326" x2="493.438" y2="235.822" gradientUnits="userSpaceOnUse">
<stop stop-color="#FF1CF7"/>
<stop offset="1" stop-color="#885EFE"/>
</linearGradient>
<linearGradient id="paint45_linear_589_195" x1="312.355" y1="477.574" x2="492.392" y2="238.656" gradientUnits="userSpaceOnUse">
<stop stop-color="#FF1CF7"/>
<stop offset="1" stop-color="#885EFE"/>
</linearGradient>
<linearGradient id="paint46_linear_589_195" x1="307.496" y1="476.791" x2="491.31" y2="241.52" gradientUnits="userSpaceOnUse">
<stop stop-color="#FF1CF7"/>
<stop offset="1" stop-color="#885EFE"/>
</linearGradient>
<linearGradient id="paint47_linear_589_195" x1="302.673" y1="475.979" x2="490.19" y2="244.414" gradientUnits="userSpaceOnUse">
<stop stop-color="#FF1CF7"/>
<stop offset="1" stop-color="#885EFE"/>
</linearGradient>
<linearGradient id="paint48_linear_589_195" x1="297.885" y1="475.139" x2="489.033" y2="247.337" gradientUnits="userSpaceOnUse">
<stop stop-color="#FF1CF7"/>
<stop offset="1" stop-color="#885EFE"/>
</linearGradient>
<linearGradient id="paint49_linear_589_195" x1="293.134" y1="474.272" x2="487.838" y2="250.29" gradientUnits="userSpaceOnUse">
<stop stop-color="#FF1CF7"/>
<stop offset="1" stop-color="#885EFE"/>
</linearGradient>
<linearGradient id="paint50_linear_589_195" x1="288.42" y1="473.378" x2="486.605" y2="253.27" gradientUnits="userSpaceOnUse">
<stop stop-color="#FF1CF7"/>
<stop offset="1" stop-color="#885EFE"/>
</linearGradient>
<linearGradient id="paint51_linear_589_195" x1="283.742" y1="472.457" x2="485.333" y2="256.277" gradientUnits="userSpaceOnUse">
<stop stop-color="#FF1CF7"/>
<stop offset="1" stop-color="#885EFE"/>
</linearGradient>
<linearGradient id="paint52_linear_589_195" x1="279.102" y1="471.511" x2="484.022" y2="259.31" gradientUnits="userSpaceOnUse">
<stop stop-color="#FF1CF7"/>
<stop offset="1" stop-color="#885EFE"/>
</linearGradient>
<linearGradient id="paint53_linear_589_195" x1="274.5" y1="470.54" x2="482.672" y2="262.368" gradientUnits="userSpaceOnUse">
<stop stop-color="#FF1CF7"/>
<stop offset="1" stop-color="#885EFE"/>
</linearGradient>
<linearGradient id="paint54_linear_589_195" x1="269.936" y1="469.545" x2="481.282" y2="265.451" gradientUnits="userSpaceOnUse">
<stop stop-color="#FF1CF7"/>
<stop offset="1" stop-color="#885EFE"/>
</linearGradient>
<linearGradient id="paint55_linear_589_195" x1="265.411" y1="468.527" x2="479.851" y2="268.558" gradientUnits="userSpaceOnUse">
<stop stop-color="#FF1CF7"/>
<stop offset="1" stop-color="#885EFE"/>
</linearGradient>
<linearGradient id="paint56_linear_589_195" x1="260.925" y1="467.486" x2="478.38" y2="271.688" gradientUnits="userSpaceOnUse">
<stop stop-color="#FF1CF7"/>
<stop offset="1" stop-color="#885EFE"/>
</linearGradient>
<linearGradient id="paint57_linear_589_195" x1="256.478" y1="466.424" x2="476.868" y2="274.841" gradientUnits="userSpaceOnUse">
<stop stop-color="#FF1CF7"/>
<stop offset="1" stop-color="#885EFE"/>
</linearGradient>
<linearGradient id="paint58_linear_589_195" x1="252.07" y1="465.34" x2="475.315" y2="278.015" gradientUnits="userSpaceOnUse">
<stop stop-color="#FF1CF7"/>
<stop offset="1" stop-color="#885EFE"/>
</linearGradient>
<linearGradient id="paint59_linear_589_195" x1="247.702" y1="464.236" x2="473.721" y2="281.21" gradientUnits="userSpaceOnUse">
<stop stop-color="#FF1CF7"/>
<stop offset="1" stop-color="#885EFE"/>
</linearGradient>
<linearGradient id="paint60_linear_589_195" x1="243.375" y1="463.112" x2="472.084" y2="284.425" gradientUnits="userSpaceOnUse">
<stop stop-color="#FF1CF7"/>
<stop offset="1" stop-color="#885EFE"/>
</linearGradient>
<linearGradient id="paint61_linear_589_195" x1="239.087" y1="461.97" x2="470.405" y2="287.66" gradientUnits="userSpaceOnUse">
<stop stop-color="#FF1CF7"/>
<stop offset="1" stop-color="#885EFE"/>
</linearGradient>
<linearGradient id="paint62_linear_589_195" x1="234.841" y1="460.81" x2="468.685" y2="290.913" gradientUnits="userSpaceOnUse">
<stop stop-color="#FF1CF7"/>
<stop offset="1" stop-color="#885EFE"/>
</linearGradient>
<linearGradient id="paint63_linear_589_195" x1="230.635" y1="459.632" x2="466.921" y2="294.183" gradientUnits="userSpaceOnUse">
<stop stop-color="#FF1CF7"/>
<stop offset="1" stop-color="#885EFE"/>
</linearGradient>
<linearGradient id="paint64_linear_589_195" x1="226.47" y1="458.438" x2="465.115" y2="297.471" gradientUnits="userSpaceOnUse">
<stop stop-color="#FF1CF7"/>
<stop offset="1" stop-color="#885EFE"/>
</linearGradient>
<linearGradient id="paint65_linear_589_195" x1="222.347" y1="457.228" x2="463.266" y2="300.773" gradientUnits="userSpaceOnUse">
<stop stop-color="#FF1CF7"/>
<stop offset="1" stop-color="#885EFE"/>
</linearGradient>
<linearGradient id="paint66_linear_589_195" x1="218.265" y1="456.003" x2="461.373" y2="304.092" gradientUnits="userSpaceOnUse">
<stop stop-color="#FF1CF7"/>
<stop offset="1" stop-color="#885EFE"/>
</linearGradient>
<linearGradient id="paint67_linear_589_195" x1="214.224" y1="454.763" x2="459.437" y2="307.425" gradientUnits="userSpaceOnUse">
<stop stop-color="#FF1CF7"/>
<stop offset="1" stop-color="#885EFE"/>
</linearGradient>
<linearGradient id="paint68_linear_589_195" x1="210.226" y1="453.51" x2="457.458" y2="310.771" gradientUnits="userSpaceOnUse">
<stop stop-color="#FF1CF7"/>
<stop offset="1" stop-color="#885EFE"/>
</linearGradient>
<linearGradient id="paint69_linear_589_195" x1="206.27" y1="452.246" x2="455.435" y2="314.131" gradientUnits="userSpaceOnUse">
<stop stop-color="#FF1CF7"/>
<stop offset="1" stop-color="#885EFE"/>
</linearGradient>
<linearGradient id="paint70_linear_589_195" x1="202.355" y1="450.968" x2="453.368" y2="317.502" gradientUnits="userSpaceOnUse">
<stop stop-color="#FF1CF7"/>
<stop offset="1" stop-color="#885EFE"/>
</linearGradient>
<linearGradient id="paint71_linear_589_195" x1="198.483" y1="449.68" x2="451.257" y2="320.886" gradientUnits="userSpaceOnUse">
<stop stop-color="#FF1CF7"/>
<stop offset="1" stop-color="#885EFE"/>
</linearGradient>
<linearGradient id="paint72_linear_589_195" x1="194.654" y1="448.381" x2="449.102" y2="324.279" gradientUnits="userSpaceOnUse">
<stop stop-color="#FF1CF7"/>
<stop offset="1" stop-color="#885EFE"/>
</linearGradient>
<linearGradient id="paint73_linear_589_195" x1="190.866" y1="447.074" x2="446.903" y2="327.682" gradientUnits="userSpaceOnUse">
<stop stop-color="#FF1CF7"/>
<stop offset="1" stop-color="#885EFE"/>
</linearGradient>
<linearGradient id="paint74_linear_589_195" x1="187.122" y1="445.756" x2="444.659" y2="331.093" gradientUnits="userSpaceOnUse">
<stop stop-color="#FF1CF7"/>
<stop offset="1" stop-color="#885EFE"/>
</linearGradient>
<linearGradient id="paint75_linear_589_195" x1="183.42" y1="444.431" x2="442.372" y2="334.513" gradientUnits="userSpaceOnUse">
<stop stop-color="#FF1CF7"/>
<stop offset="1" stop-color="#885EFE"/>
</linearGradient>
<linearGradient id="paint76_linear_589_195" x1="179.76" y1="443.1" x2="440.04" y2="337.94" gradientUnits="userSpaceOnUse">
<stop stop-color="#FF1CF7"/>
<stop offset="1" stop-color="#885EFE"/>
</linearGradient>
<linearGradient id="paint77_linear_589_195" x1="176.144" y1="441.762" x2="437.663" y2="341.374" gradientUnits="userSpaceOnUse">
<stop stop-color="#FF1CF7"/>
<stop offset="1" stop-color="#885EFE"/>
</linearGradient>
<linearGradient id="paint78_linear_589_195" x1="172.569" y1="440.417" x2="435.243" y2="344.812" gradientUnits="userSpaceOnUse">
<stop stop-color="#FF1CF7"/>
<stop offset="1" stop-color="#885EFE"/>
</linearGradient>
<linearGradient id="paint79_linear_589_195" x1="169.038" y1="439.068" x2="432.778" y2="348.256" gradientUnits="userSpaceOnUse">
<stop stop-color="#FF1CF7"/>
<stop offset="1" stop-color="#885EFE"/>
</linearGradient>
<linearGradient id="paint80_linear_589_195" x1="165.549" y1="437.715" x2="430.268" y2="351.702" gradientUnits="userSpaceOnUse">
<stop stop-color="#FF1CF7"/>
<stop offset="1" stop-color="#885EFE"/>
</linearGradient>
<linearGradient id="paint81_linear_589_195" x1="162.103" y1="436.358" x2="427.714" y2="355.153" gradientUnits="userSpaceOnUse">
<stop stop-color="#FF1CF7"/>
<stop offset="1" stop-color="#885EFE"/>
</linearGradient>
<linearGradient id="paint82_linear_589_195" x1="158.701" y1="434.999" x2="425.116" y2="358.605" gradientUnits="userSpaceOnUse">
<stop stop-color="#FF1CF7"/>
<stop offset="1" stop-color="#885EFE"/>
</linearGradient>
<linearGradient id="paint83_linear_589_195" x1="155.339" y1="433.639" x2="422.473" y2="362.06" gradientUnits="userSpaceOnUse">
<stop stop-color="#FF1CF7"/>
<stop offset="1" stop-color="#885EFE"/>
</linearGradient>
<linearGradient id="paint84_linear_589_195" x1="152.022" y1="432.276" x2="419.787" y2="365.515" gradientUnits="userSpaceOnUse">
<stop stop-color="#FF1CF7"/>
<stop offset="1" stop-color="#885EFE"/>
</linearGradient>
<linearGradient id="paint85_linear_589_195" x1="148.746" y1="430.914" x2="417.056" y2="368.97" gradientUnits="userSpaceOnUse">
<stop stop-color="#FF1CF7"/>
<stop offset="1" stop-color="#885EFE"/>
</linearGradient>
<linearGradient id="paint86_linear_589_195" x1="145.513" y1="429.553" x2="414.281" y2="372.424" gradientUnits="userSpaceOnUse">
<stop stop-color="#FF1CF7"/>
<stop offset="1" stop-color="#885EFE"/>
</linearGradient>
<linearGradient id="paint87_linear_589_195" x1="142.322" y1="428.192" x2="411.462" y2="375.877" gradientUnits="userSpaceOnUse">
<stop stop-color="#FF1CF7"/>
<stop offset="1" stop-color="#885EFE"/>
</linearGradient>
<linearGradient id="paint88_linear_589_195" x1="139.172" y1="426.834" x2="408.6" y2="379.327" gradientUnits="userSpaceOnUse">
<stop stop-color="#FF1CF7"/>
<stop offset="1" stop-color="#885EFE"/>
</linearGradient>
<linearGradient id="paint89_linear_589_195" x1="136.066" y1="425.48" x2="405.694" y2="382.775" gradientUnits="userSpaceOnUse">
<stop stop-color="#FF1CF7"/>
<stop offset="1" stop-color="#885EFE"/>
</linearGradient>
<linearGradient id="paint90_linear_589_195" x1="133.001" y1="424.127" x2="402.744" y2="386.217" gradientUnits="userSpaceOnUse">
<stop stop-color="#FF1CF7"/>
<stop offset="1" stop-color="#885EFE"/>
</linearGradient>
<linearGradient id="paint91_linear_589_195" x1="129.978" y1="422.779" x2="399.751" y2="389.655" gradientUnits="userSpaceOnUse">
<stop stop-color="#FF1CF7"/>
<stop offset="1" stop-color="#885EFE"/>
</linearGradient>
<linearGradient id="paint92_linear_589_195" x1="126.996" y1="421.437" x2="396.715" y2="393.088" gradientUnits="userSpaceOnUse">
<stop stop-color="#FF1CF7"/>
<stop offset="1" stop-color="#885EFE"/>
</linearGradient>
<linearGradient id="paint93_linear_589_195" x1="124.056" y1="420.101" x2="393.636" y2="396.516" gradientUnits="userSpaceOnUse">
<stop stop-color="#FF1CF7"/>
<stop offset="1" stop-color="#885EFE"/>
</linearGradient>
<linearGradient id="paint94_linear_589_195" x1="121.157" y1="418.77" x2="390.514" y2="399.935" gradientUnits="userSpaceOnUse">
<stop stop-color="#FF1CF7"/>
<stop offset="1" stop-color="#885EFE"/>
</linearGradient>
<linearGradient id="paint95_linear_589_195" x1="118.299" y1="417.447" x2="387.35" y2="403.347" gradientUnits="userSpaceOnUse">
<stop stop-color="#FF1CF7"/>
<stop offset="1" stop-color="#885EFE"/>
</linearGradient>
<linearGradient id="paint96_linear_589_195" x1="115.482" y1="416.131" x2="384.143" y2="406.749" gradientUnits="userSpaceOnUse">
<stop stop-color="#FF1CF7"/>
<stop offset="1" stop-color="#885EFE"/>
</linearGradient>
<linearGradient id="paint97_linear_589_195" x1="112.705" y1="414.825" x2="380.895" y2="410.144" gradientUnits="userSpaceOnUse">
<stop stop-color="#FF1CF7"/>
<stop offset="1" stop-color="#885EFE"/>
</linearGradient>
<linearGradient id="paint98_linear_589_195" x1="109.969" y1="413.528" x2="377.605" y2="413.528" gradientUnits="userSpaceOnUse">
<stop stop-color="#FF1CF7"/>
<stop offset="1" stop-color="#885EFE"/>
</linearGradient>
</defs>
</svg>
